PathFileType	4	(X/Y/Z)	Patient4_TMGait_0pt3_01_left_13.trc.trc
DataRate	CameraRate	NumFrames	NumMarkers	Units	OrigDataRate	OrigDataStartFrame	OrigNumFrames
54.687500000000	54.687500000000	7	33	mm	54.687500000000	36	       141
Frame#	Time	Sacral			L.Shoulder			Chest			R.Shoulder			Neck			R.ASIS			L.ASIS			R.Thigh.Superior			R.Thigh.Lateral			R.Thigh.Inferior			R.Patella			L.Thigh.Superior			L.Thigh.Lateral			L.Thigh.Inferior			L.Patella			L.Shank.Superior			L.Shank.Lateral			L.Shank.Inferior			R.Shank.Superior			R.Shank.Lateral			R.Shank.Inferior			R.Heel			R.Midfoot.Superior			R.Midfoot.Lateral			R.Toe			L.Heel			L.Midfoot.Lateral			L.Midfoot.Superior			L.Toe			L.Elbow			L.Wrist			R.Elbow			R.Wrist			
		X1	Y1	Z1	X2	Y2	Z2	X3	Y3	Z3	X4	Y4	Z4	X5	Y5	Z5	X6	Y6	Z6	X7	Y7	Z7	X8	Y8	Z8	X9	Y9	Z9	X10	Y10	Z10	X11	Y11	Z11	X12	Y12	Z12	X13	Y13	Z13	X14	Y14	Z14	X15	Y15	Z15	X16	Y16	Z16	X17	Y17	Z17	X18	Y18	Z18	X19	Y19	Z19	X20	Y20	Z20	X21	Y21	Z21	X22	Y22	Z22	X23	Y23	Z23	X24	Y24	Z24	X25	Y25	Z25	X26	Y26	Z26	X27	Y27	Z27	X28	Y28	Z28	X29	Y29	Z29	X30	Y30	Z30	X31	Y31	Z31	X32	Y32	Z32	X33	Y33	Z33	

36	24.740000000000	743.671549490467	1004.156439381382	517.429925787088	905.869951974214	1421.113445563009	310.397028002544	1022.570144740490	1358.991292330045	464.897907908735	953.802405801143	1441.494871647240	640.421051513237	905.979652883217	1490.096296102031	464.936504577799	975.596317724101	933.752923626315	622.691608846712	949.872178600303	955.556777408067	348.344117781384	968.906249221405	718.908702064719	602.881094178867	862.543803614380	627.158709806765	665.532888222831	926.867536960196	557.180257503952	591.437902441340	903.941455726286	465.305706220887	603.010219350530	1020.755629743904	762.826018866222	387.934654671433	954.664345949512	635.358089585279	320.827584493952	1048.470053055642	570.658901807079	386.995373012895	1058.044049510649	499.889735494202	393.545157598295	1036.334481411743	425.500002315287	383.455860065931	957.090763563933	305.566548491368	327.542661385297	1015.480194472641	196.951371753958	397.722013446332	846.419195559725	390.195831247264	610.752245013113	741.431416380551	317.143158481751	669.535732874705	757.852851578183	210.025148034090	615.410761270208	586.005742106931	75.342364183330	576.529433061414	756.751576213061	100.175323587897	631.723065618765	657.284006507314	54.452832092212	659.880911363546	862.361069340462	36.737991672207	677.052696746262	894.881690330760	37.928356693301	432.607256327094	971.879751927064	36.034508664769	354.563485768294	1054.033053959580	97.025828582494	385.077887999782	1183.007341123793	46.500257030080	361.000486699273	797.067181422387	1081.711912522001	217.850465570987	864.126500666603	828.428825213362	214.595893908278	1096.140925103651	1134.731419932933	757.278415871028	1329.128153390196	1209.696957593178	700.586995558888	
37	24.758285714286	744.558100696910	1004.983577567418	512.189092472804	908.070499586676	1421.959361157087	305.653879328210	1023.552100336383	1360.101072086015	461.165983339787	953.334415209761	1442.976612605107	635.946944441773	906.714963522255	1491.134636209252	460.120507739610	975.778672125990	935.153792524372	619.181743050211	951.919891478859	956.204534597647	344.704114742221	971.544326214614	720.522771339772	600.586053110663	866.266563019178	627.959833293297	663.380044045351	932.356481788529	558.004317897354	590.343749045445	910.133459577866	464.549598496927	603.421807662223	1021.315472551048	762.300101531545	383.812949323709	953.643255915266	635.209491926389	317.894037088952	1046.948042483771	569.892285553457	383.943519747044	1055.930637562126	499.259500996373	391.069344096118	1033.735738670566	424.903691660914	381.442306302535	953.697398965783	305.252515338407	326.072770596521	1011.132562778595	196.632604290039	396.934992539992	850.318310894559	390.674880187141	610.609557663821	743.027371236945	320.577864836394	668.755351861117	757.715157083477	212.591542900334	615.690287478059	582.853508575560	82.581480459252	576.678792008090	754.148687454358	101.532132125554	632.222323496030	653.269891255005	58.997018410818	659.958003814922	857.117590305177	36.219350436657	677.055135907095	889.588741623691	37.909951674345	432.504422719812	966.612186532923	36.006708707879	354.478619789950	1048.779555300795	96.950201299823	384.978070183011	1177.793167787314	46.300090432456	361.044636954160	805.095465567810	1080.962769064328	210.658613652376	881.093667894770	830.103209753688	207.516411142217	1093.344412266465	1134.277810982443	752.522914528843	1329.695377597041	1200.744103021414	697.520533193271	
38	24.776571428571	745.327820860346	1005.707909822149	507.005434070986	910.108378084934	1422.838539470753	301.054511514746	1024.257261983124	1361.296692193517	457.656836807778	952.428221527621	1444.477884469955	631.657567683196	907.180670111863	1492.191551172060	455.465877906687	975.853374205292	936.629212346755	615.726042765126	953.887778914165	956.883346638652	341.154554985721	974.732910891337	722.314145720958	598.281996658220	870.897491943438	628.672410486628	661.289490222455	938.902240873187	558.934526466016	589.258252490326	917.472474228763	463.823338194315	603.928144462275	1021.641072888465	761.641171161992	379.592808150469	952.212635508557	635.050685569325	314.910051247027	1044.980442799006	569.047607068371	380.782720464378	1053.296798785769	498.596248334277	388.463368760684	1030.700943764914	424.309920065305	379.304229690708	949.920270239198	304.876636457498	324.534028802361	1006.600702174920	196.332992694263	396.059841567633	855.306779646908	391.196639873770	610.504330055108	745.622934953963	324.348936376169	667.907721003783	758.337948039576	215.530319949717	615.912168602204	580.319557716927	90.906634203896	576.591672819122	751.995497854293	103.293299823926	632.674290927348	649.593568989616	64.448363231267	659.874554268903	851.814887042130	35.657520363428	677.057433004524	884.254505959823	37.890923005884	432.414969716432	961.281724606304	35.967569971143	354.378914219923	1043.470874145068	96.875024701831	384.820096348571	1172.514295656082	46.105435946281	361.019021058937	814.141170335574	1080.209554623989	203.209147152560	898.189710060190	831.840629864193	200.515557558917	1089.336251692168	1133.503087329052	748.177338867171	1329.010986580661	1190.491428720575	695.035667846733	
39	24.794857142857	745.973115837247	1006.316280618177	501.912163696751	911.909393268940	1423.721442482419	296.631875440421	1024.657025361487	1362.560682018415	454.370183959047	951.098538620211	1445.967865539785	627.575263849284	907.354467567359	1493.240403948480	450.999445149861	975.835205817081	938.142548398627	612.346598828677	955.768126052467	957.588688466752	337.718967509103	978.453058072999	724.272238792739	595.962791834302	876.407668547375	629.309833185484	659.243309106477	946.443071945571	559.995995903383	588.128169604518	925.887522033091	463.184654361871	604.420515873421	1021.776028833985	760.893035431490	375.387504136656	950.490349420919	634.907317580859	311.925833730867	1042.661464903863	568.157770930728	377.609405104849	1050.237957412709	497.915740677002	385.819725766078	1027.321465880523	423.728183397879	377.114530210256	945.852101456082	304.465158746128	322.961147108452	1001.921581455995	196.048612622059	395.143325604649	861.353780251970	391.791171423904	610.361578606738	749.232783161592	328.464797492331	666.933200070722	759.734964671470	218.874834883638	616.000414363879	578.508334057878	100.319660316496	576.170336112632	750.330555564511	105.564272505481	633.031893459357	646.334842115289	70.875375441584	659.556011191735	846.500189441417	35.071882198984	677.062823512958	878.868856091147	37.873040235122	432.337291954899	955.883419138321	35.920875721609	354.270303672013	1038.105374155054	96.794962764200	384.625520677810	1167.167865597656	45.909144875590	360.942687251337	824.224840108979	1079.460047234302	195.609340978008	915.374604626746	833.559183537869	193.670776779822	1084.075505642879	1132.399800012637	744.298309966859	1326.904982292268	1178.865864298653	693.117868406555	
40	24.813142857143	746.485866196949	1006.804886754444	496.935902870892	913.423729065143	1424.583545384249	292.414977855484	1024.737595973498	1363.874322395609	451.307891891283	949.367627169603	1447.417893349757	623.719077588275	907.228719080130	1494.258338711242	446.743562465335	975.733319343079	939.662588891027	609.071927409835	957.556135336384	958.316302721197	334.423808144887	982.655655925238	726.392397252062	593.627981905183	882.725035449930	629.902816358872	657.222884072045	954.868108578316	561.223645955441	586.904032100173	935.267514196493	462.700547851563	604.790787109593	1021.764751398629	760.093720882519	371.300062564599	948.583125972546	634.793539485806	308.995585051619	1040.084383817172	567.249230090269	374.521154903114	1046.859365803885	497.231715013753	383.235272940602	1023.691468398043	423.167094011544	374.953673847053	941.589634165807	304.044355316446	321.402536853595	997.137004456898	195.777574746511	394.236276106894	868.386183420725	392.497608735324	610.104756479714	753.832987130735	332.919839889752	665.768051911732	761.903260352379	222.643286623780	615.874731531605	577.524043185722	110.747679283472	575.317301431014	749.201607489954	108.432793925883	633.241175371247	643.590869845272	78.287379108587	658.924967720307	841.266247550661	34.508185814651	677.067658197403	873.432679662459	37.857730054582	432.268378698985	950.424212508495	35.871389669843	354.159459061175	1032.689601685966	96.709900709454	384.415611827010	1161.761042950588	45.711348502314	360.835340259005	835.297971105036	1078.747100420753	187.993495722786	932.627672860323	835.229588702307	187.065543048773	1077.561718924524	1130.988102179486	740.923789236899	1323.230660519700	1165.819869175854	691.743982952140	
41	24.831428571429	746.858136166613	1007.175720377598	492.098523228611	914.631049825817	1425.405928978022	288.428657143059	1024.502005618670	1365.215537554682	448.474970463904	947.266262695507	1448.800084607135	620.104619212269	906.813016392344	1495.226273940464	442.716642184021	975.548541291560	941.164205689326	605.931234660288	959.247134349240	959.061442912488	331.293700751730	987.264867404493	728.675008674047	591.278586758385	889.742352084286	630.494191680731	655.209881756453	964.026749511086	562.657866690041	585.542856285854	945.470978350340	462.441579966766	604.941743027827	1021.651216163261	759.274880161738	367.422922467889	946.589286478950	634.712083230170	306.176025138575	1037.341634977199	566.342316394803	371.616399759885	1043.273110569748	496.553351382702	380.808144724225	1019.905522074775	422.631551337704	372.905893731174	937.228798622028	303.638087244208	319.915321801006	992.290025296047	195.518470281218	393.390786994090	876.298312483161	393.358209149398	609.663544714863	759.367648940246	337.687299860269	664.352105411067	764.832250717709	226.828301645054	615.459878747497	577.467696890683	122.027017023509	573.948679391084	748.672133911420	111.946717317292	633.243906687454	641.479080103810	86.613270346799	657.910560883351	836.261874130917	34.040727686526	677.058783973423	867.953775047744	37.845967605532	432.205242297822	944.917664526564	35.824057356390	354.053239029675	1027.234581194387	96.623245576330	384.210087032313	1156.306366993033	45.516438380941	360.714517564742	847.239497586329	1078.122775129610	180.512688306743	949.942224293442	836.880451191636	180.787078832123	1069.834087199786	1129.308494090726	738.067570046254	1317.862477427326	1151.335678754802	690.887935872309	
42	24.849714285714	747.082956671936	1007.432732030976	487.417975658541	915.541035051737	1426.174609394824	284.693804360063	1023.970020735475	1366.556868270740	445.879416303724	944.834388428104	1450.084878757970	616.744260337516	906.134647819000	1496.127793307831	438.934368515087	975.271777477340	942.626785414129	602.948801542106	960.836026429838	959.817337958049	328.347551108891	992.182447940048	731.123001093000	588.913665316437	897.326037023174	631.132342808852	653.187347908038	973.740299509614	564.339275270602	584.010352737495	956.336086919987	462.475686690757	604.795284016245	1021.478192180366	758.462282833981	363.839611987055	944.604022183062	634.655174578726	303.524089779659	1034.527643342139	565.452005239241	368.991888030190	1039.598078492851	495.883546284849	378.633453454231	1016.059204140690	422.120451234518	371.054427504272	932.862806026140	303.265807914619	318.558141451265	987.422676145712	195.268783564207	392.656831578668	884.964097655604	394.411744504784	608.981301928238	765.758519060642	342.713049184035	662.637549743909	768.514235828701	231.387185868172	614.696173497644	578.434262066629	133.895053040323	572.009717742903	748.827610836542	116.093386699494	632.981755596343	640.139137828780	95.686645266657	656.460078362070	831.700125412563	33.767675918973	677.012315593289	862.443036323646	37.838157720781	432.145756591161	939.379492003897	35.783283195685	353.958067577676	1021.752739422245	96.540246777316	384.026193039692	1150.817972954305	45.330536754434	360.594269227697	859.861343164602	1077.648191470744	173.321942241840	967.319764678547	838.593434543408	174.922257697950	1060.967128208912	1127.410545237446	735.715826076819	1310.692460803261	1135.426446250538	690.525820275316	
